<?xml version="1.0" encoding="UTF-8" standalone="no"?>
<!-- Created with Inkscape (http://www.inkscape.org/) -->

<svg
   width="200mm"
   height="200mm"
   viewBox="0 0 200 200"
   version="1.1"
   id="svg1"
   xml:space="preserve"
   inkscape:version="1.3 (0e150ed6c4, 2023-07-21)"
   sodipodi:docname="FillSpreadsheet.svg"
   xmlns:inkscape="http://www.inkscape.org/namespaces/inkscape"
   xmlns:sodipodi="http://sodipodi.sourceforge.net/DTD/sodipodi-0.dtd"
   xmlns:xlink="http://www.w3.org/1999/xlink"
   xmlns="http://www.w3.org/2000/svg"
   xmlns:svg="http://www.w3.org/2000/svg"><sodipodi:namedview
     id="namedview1"
     pagecolor="#505050"
     bordercolor="#eeeeee"
     borderopacity="1"
     inkscape:showpageshadow="0"
     inkscape:pageopacity="0"
     inkscape:pagecheckerboard="0"
     inkscape:deskcolor="#505050"
     inkscape:document-units="mm"
     inkscape:zoom="0.35355339"
     inkscape:cx="-41.012193"
     inkscape:cy="796.20224"
     inkscape:window-width="1920"
     inkscape:window-height="1009"
     inkscape:window-x="-8"
     inkscape:window-y="-8"
     inkscape:window-maximized="1"
     inkscape:current-layer="layer3"
     showgrid="false" /><defs
     id="defs1"><linearGradient
       id="linearGradient5048"><stop
         id="stop5050"
         offset="0"
         style="stop-color:black;stop-opacity:0;" /><stop
         style="stop-color:black;stop-opacity:1;"
         offset="0.5"
         id="stop5056" /><stop
         id="stop5052"
         offset="1"
         style="stop-color:black;stop-opacity:0;" /></linearGradient><linearGradient
       id="linearGradient4542"><stop
         id="stop4544"
         offset="0"
         style="stop-color:#000000;stop-opacity:1;" /><stop
         id="stop4546"
         offset="1"
         style="stop-color:#000000;stop-opacity:0;" /></linearGradient><radialGradient
       gradientUnits="userSpaceOnUse"
       gradientTransform="matrix(1,0,0,0.284916,0,30.08928)"
       r="15.821514"
       fy="42.07798"
       fx="24.306795"
       cy="42.07798"
       cx="24.306795"
       id="radialGradient4548"
       xlink:href="#linearGradient4542" /><linearGradient
       id="linearGradient15662"><stop
         id="stop15664"
         offset="0.0000000"
         style="stop-color:#ffffff;stop-opacity:1.0000000;" /><stop
         id="stop15666"
         offset="1.0000000"
         style="stop-color:#f8f8f8;stop-opacity:1.0000000;" /></linearGradient><radialGradient
       id="aigrd3"
       cx="20.892099"
       cy="64.567902"
       r="5.257"
       fx="20.892099"
       fy="64.567902"
       gradientUnits="userSpaceOnUse"><stop
         offset="0"
         style="stop-color:#F0F0F0"
         id="stop15573" /><stop
         offset="1.0000000"
         style="stop-color:#9a9a9a;stop-opacity:1.0000000;"
         id="stop15575" /></radialGradient><radialGradient
       id="aigrd2"
       cx="20.892099"
       cy="114.5684"
       r="5.256"
       fx="20.892099"
       fy="114.5684"
       gradientUnits="userSpaceOnUse"><stop
         offset="0"
         style="stop-color:#F0F0F0"
         id="stop15566" /><stop
         offset="1.0000000"
         style="stop-color:#9a9a9a;stop-opacity:1.0000000;"
         id="stop15568" /></radialGradient><linearGradient
       id="linearGradient269"><stop
         id="stop270"
         offset="0.0000000"
         style="stop-color:#a3a3a3;stop-opacity:1.0000000;" /><stop
         id="stop271"
         offset="1.0000000"
         style="stop-color:#4c4c4c;stop-opacity:1.0000000;" /></linearGradient><linearGradient
       id="linearGradient259"><stop
         id="stop260"
         offset="0.0000000"
         style="stop-color:#fafafa;stop-opacity:1.0000000;" /><stop
         id="stop261"
         offset="1.0000000"
         style="stop-color:#bbbbbb;stop-opacity:1.0000000;" /></linearGradient><linearGradient
       id="linearGradient12512"><stop
         id="stop12513"
         offset="0.0000000"
         style="stop-color:#ffffff;stop-opacity:1.0000000;" /><stop
         id="stop12517"
         offset="0.50000000"
         style="stop-color:#fff520;stop-opacity:0.89108908;" /><stop
         id="stop12514"
         offset="1.0000000"
         style="stop-color:#fff300;stop-opacity:0.0000000;" /></linearGradient><radialGradient
       r="14.375"
       fy="125"
       fx="55"
       cy="125"
       cx="55"
       gradientUnits="userSpaceOnUse"
       id="radialGradient278"
       xlink:href="#linearGradient12512" /><linearGradient
       y2="609.50507"
       x2="302.85715"
       y1="366.64789"
       x1="302.85715"
       gradientTransform="matrix(2.774389,0,0,1.969706,-1892.179,-872.8854)"
       gradientUnits="userSpaceOnUse"
       id="linearGradient5027-1"
       xlink:href="#linearGradient5048" /><radialGradient
       r="117.14286"
       fy="486.64789"
       fx="605.71429"
       cy="486.64789"
       cx="605.71429"
       gradientTransform="matrix(2.774389,0,0,1.969706,-1891.633,-872.8854)"
       gradientUnits="userSpaceOnUse"
       id="radialGradient5029-4"
       xlink:href="#linearGradient4542" /><radialGradient
       xlink:href="#linearGradient4542"
       id="radialGradient3277"
       gradientUnits="userSpaceOnUse"
       gradientTransform="matrix(-2.774389,0,0,1.969706,112.7623,-872.8854)"
       cx="605.71429"
       cy="486.64789"
       fx="605.71429"
       fy="486.64789"
       r="117.14286" /><radialGradient
       xlink:href="#linearGradient259"
       id="radialGradient15658-4"
       gradientUnits="userSpaceOnUse"
       gradientTransform="matrix(1.3213634,0,0,1.4243677,-18.082716,-65.975171)"
       cx="33.966679"
       cy="35.736916"
       fx="33.966679"
       fy="35.736916"
       r="86.70845" /><radialGradient
       xlink:href="#linearGradient269"
       id="radialGradient15656-7"
       gradientUnits="userSpaceOnUse"
       gradientTransform="matrix(1.3320666,0,0,1.4129236,-13.469186,-65.090761)"
       cx="3.3431637"
       cy="37.388847"
       fx="3.3431637"
       fy="37.388847"
       r="37.751713" /><radialGradient
       xlink:href="#linearGradient15662"
       id="radialGradient15668-2"
       gradientUnits="userSpaceOnUse"
       gradientTransform="matrix(1.2992848,0,0,1.378488,-12.78616,-64.242471)"
       cx="8.1435566"
       cy="7.2678967"
       fx="8.1435566"
       fy="7.2678967"
       r="38.158695" /><radialGradient
       r="5.256"
       fy="114.5684"
       fx="20.892099"
       cy="114.5684"
       cx="20.892099"
       gradientTransform="matrix(0.229703,0,0,0.229703,4.613529,3.979808)"
       gradientUnits="userSpaceOnUse"
       id="radialGradient2283-4"
       xlink:href="#aigrd2-2" /><radialGradient
       id="aigrd2-2"
       cx="20.892099"
       cy="114.5684"
       r="5.256"
       fx="20.892099"
       fy="114.5684"
       gradientUnits="userSpaceOnUse"><stop
         offset="0"
         style="stop-color:#F0F0F0"
         id="stop15566-3" /><stop
         offset="1.0000000"
         style="stop-color:#9a9a9a;stop-opacity:1.0000000;"
         id="stop15568-2" /></radialGradient><radialGradient
       r="5.257"
       fy="64.567902"
       fx="20.892099"
       cy="64.567902"
       cx="20.892099"
       gradientTransform="matrix(0.229703,0,0,0.229703,4.613529,3.979808)"
       gradientUnits="userSpaceOnUse"
       id="radialGradient2285-2"
       xlink:href="#aigrd3-1" /><radialGradient
       id="aigrd3-1"
       cx="20.892099"
       cy="64.567902"
       r="5.257"
       fx="20.892099"
       fy="64.567902"
       gradientUnits="userSpaceOnUse"><stop
         offset="0"
         style="stop-color:#F0F0F0"
         id="stop15573-6" /><stop
         offset="1.0000000"
         style="stop-color:#9a9a9a;stop-opacity:1.0000000;"
         id="stop15575-8" /></radialGradient><radialGradient
       xlink:href="#linearGradient4542"
       id="radialGradient3187"
       gradientUnits="userSpaceOnUse"
       gradientTransform="matrix(-2.774389,0,0,1.969706,112.7623,-872.8854)"
       cx="605.71429"
       cy="486.64789"
       fx="605.71429"
       fy="486.64789"
       r="117.14286" /><radialGradient
       r="5.256"
       fy="114.5684"
       fx="20.892099"
       cy="114.5684"
       cx="20.892099"
       gradientTransform="matrix(0.229703,0,0,0.229703,4.613529,3.979808)"
       gradientUnits="userSpaceOnUse"
       id="radialGradient2283"
       xlink:href="#aigrd2-7" /><radialGradient
       id="aigrd2-7"
       cx="20.892099"
       cy="114.5684"
       r="5.256"
       fx="20.892099"
       fy="114.5684"
       gradientUnits="userSpaceOnUse"><stop
         offset="0"
         style="stop-color:#F0F0F0"
         id="stop15566-4" /><stop
         offset="1.0000000"
         style="stop-color:#9a9a9a;stop-opacity:1.0000000;"
         id="stop15568-27" /></radialGradient><radialGradient
       r="5.257"
       fy="64.567902"
       fx="20.892099"
       cy="64.567902"
       cx="20.892099"
       gradientTransform="matrix(0.229703,0,0,0.229703,4.613529,3.979808)"
       gradientUnits="userSpaceOnUse"
       id="radialGradient2285"
       xlink:href="#aigrd3-7" /><radialGradient
       id="aigrd3-7"
       cx="20.892099"
       cy="64.567902"
       r="5.257"
       fx="20.892099"
       fy="64.567902"
       gradientUnits="userSpaceOnUse"><stop
         offset="0"
         style="stop-color:#F0F0F0"
         id="stop15573-9" /><stop
         offset="1.0000000"
         style="stop-color:#9a9a9a;stop-opacity:1.0000000;"
         id="stop15575-3" /></radialGradient><radialGradient
       xlink:href="#linearGradient15662"
       id="radialGradient15668"
       gradientUnits="userSpaceOnUse"
       gradientTransform="matrix(1.3004371,0,0,1.4315028,-12.790082,-64.443403)"
       cx="8.1435566"
       cy="7.2678967"
       fx="8.1435566"
       fy="7.2678967"
       r="38.158695" /><radialGradient
       xlink:href="#linearGradient259"
       id="radialGradient15658"
       gradientUnits="userSpaceOnUse"
       gradientTransform="matrix(1.3225497,0,0,1.4752117,-18.091663,-66.151728)"
       cx="33.966679"
       cy="35.736916"
       fx="33.966679"
       fy="35.736916"
       r="86.70845" /><radialGradient
       xlink:href="#linearGradient269"
       id="radialGradient15656"
       gradientUnits="userSpaceOnUse"
       gradientTransform="matrix(1.3332625,0,0,1.4633592,-13.473992,-65.235757)"
       cx="3.3431637"
       cy="37.388847"
       fx="3.3431637"
       fy="37.388847"
       r="37.751713" /><radialGradient
       r="117.14286"
       fy="486.64789"
       fx="605.71429"
       cy="486.64789"
       cx="605.71429"
       gradientTransform="matrix(2.774389,0,0,1.969706,-1891.633,-872.8854)"
       gradientUnits="userSpaceOnUse"
       id="radialGradient5029"
       xlink:href="#linearGradient4542" /><radialGradient
       xlink:href="#linearGradient4542"
       id="radialGradient3277-0"
       gradientUnits="userSpaceOnUse"
       gradientTransform="matrix(-2.774389,0,0,1.969706,112.7623,-872.8854)"
       cx="605.71429"
       cy="486.64789"
       fx="605.71429"
       fy="486.64789"
       r="117.14286" /><radialGradient
       xlink:href="#linearGradient4542"
       id="radialGradient3255"
       gradientUnits="userSpaceOnUse"
       gradientTransform="matrix(-2.774389,0,0,1.969706,112.7623,-872.8854)"
       cx="605.71429"
       cy="486.64789"
       fx="605.71429"
       fy="486.64789"
       r="117.14286" /><linearGradient
       gradientTransform="translate(-48)"
       gradientUnits="userSpaceOnUse"
       y2="25.999996"
       x2="53"
       y1="39.999996"
       x1="10"
       id="linearGradient3781"
       xlink:href="#linearGradient3775" /><linearGradient
       id="linearGradient3775"><stop
         id="stop3777"
         offset="0"
         style="stop-color:#d3d7cf;stop-opacity:1;" /><stop
         id="stop3779"
         offset="1"
         style="stop-color:#ffffff;stop-opacity:1" /></linearGradient><radialGradient
       gradientUnits="userSpaceOnUse"
       r="19.467436"
       fy="28.869568"
       fx="45.883327"
       cy="28.869568"
       cx="45.883327"
       id="radialGradient3692"
       xlink:href="#linearGradient3377" /><radialGradient
       gradientTransform="matrix(0.97435,0.2250379,-0.4623105,2.0016728,48.487554,-127.99883)"
       r="19.467436"
       fy="97.369568"
       fx="135.38333"
       cy="97.369568"
       cx="135.38333"
       gradientUnits="userSpaceOnUse"
       id="radialGradient3703"
       xlink:href="#linearGradient3377" /><linearGradient
       id="linearGradient3377"><stop
         style="stop-color:#faff2b;stop-opacity:1;"
         offset="0"
         id="stop3379" /><stop
         style="stop-color:#ffaa00;stop-opacity:1;"
         offset="1"
         id="stop3381" /></linearGradient><radialGradient
       gradientTransform="matrix(1.3852588,-0.05136783,0.03705629,0.9993132,-60.392403,7.7040438)"
       r="19.467436"
       fy="81.869568"
       fx="148.88333"
       cy="81.869568"
       cx="148.88333"
       gradientUnits="userSpaceOnUse"
       id="radialGradient3705"
       xlink:href="#linearGradient3377" /><linearGradient
       gradientTransform="matrix(1,0,0,0.77777777,0,5.1111114)"
       gradientUnits="userSpaceOnUse"
       y2="5"
       x2="21"
       y1="58"
       x1="38"
       id="linearGradient3789"
       xlink:href="#linearGradient3775" /><symbol
       id="DownArrow"><title
         id="title284">Down Arrow</title><path
         d="M 36,63 14,41 V 26 L 30,42 V 10 H 42 V 42 L 58,26 v 15 z"
         style="stroke:none"
         id="path284" /></symbol></defs><g
     inkscape:label="Layer 1"
     inkscape:groupmode="layer"
     id="layer1"
     transform="matrix(1.4092179,0,0,1.4092179,-95.825763,-214.67843)"><g
       id="layer1-3"
       transform="matrix(2.3653783,0,0,2.3653783,63.268497,138.14644)"><rect
         y="8"
         x="4"
         height="44"
         width="56"
         id="rect3002-9"
         style="color:#000000;display:inline;overflow:visible;visibility:visible;fill:#ffffff;stroke:#2e3436;stroke-width:4;stroke-linecap:butt;stroke-linejoin:round;stroke-miterlimit:4;stroke-dasharray:none;stroke-dashoffset:0;stroke-opacity:1;marker:none;enable-background:accumulate" /><rect
         y="9"
         x="5"
         height="42"
         width="54"
         id="rect3002-9-3"
         style="color:#000000;display:inline;overflow:visible;visibility:visible;fill:url(#linearGradient3789);fill-opacity:1;stroke:#ffffff;stroke-width:2;stroke-linecap:butt;stroke-linejoin:round;stroke-miterlimit:4;stroke-dasharray:none;stroke-dashoffset:0;stroke-opacity:1;marker:none;enable-background:accumulate" /><path
         id="path3790"
         d="M 3,18 H 61"
         style="fill:none;stroke:#2e3436;stroke-width:4;stroke-linecap:butt;stroke-linejoin:miter;stroke-miterlimit:4;stroke-dasharray:none;stroke-opacity:1" /><path
         id="path3792"
         d="M 22,6 V 54"
         style="fill:none;stroke:#2e3436;stroke-width:4;stroke-linecap:butt;stroke-linejoin:miter;stroke-miterlimit:4;stroke-dasharray:none;stroke-opacity:1" /><path
         id="path3794"
         d="M 3,30 H 61"
         style="fill:none;stroke:#2e3436;stroke-width:4;stroke-linecap:butt;stroke-linejoin:miter;stroke-miterlimit:4;stroke-dasharray:none;stroke-opacity:1" /><path
         id="path3796"
         d="M 3,42 H 61"
         style="fill:none;stroke:#2e3436;stroke-width:4;stroke-linecap:butt;stroke-linejoin:miter;stroke-miterlimit:4;stroke-dasharray:none;stroke-opacity:1" /></g></g><g
     inkscape:groupmode="layer"
     id="layer3"
     inkscape:label="Layer 2"
     transform="translate(-0.0917383,-62.772769)"><g
       id="g1"
       transform="matrix(2.3653783,0,0,2.3653783,53.438275,130.31159)"><g
         transform="translate(0,16)"
         id="layer6" /><g
         transform="translate(0,16)"
         style="display:inline"
         id="layer1-9" /><g
         transform="translate(0,16)"
         style="display:inline"
         id="layer4" /><g
         transform="translate(0,16)"
         id="layer2"><rect
           transform="rotate(-90)"
           y="3"
           x="-38.999996"
           height="58.000004"
           width="45.999996"
           id="rect2987"
           style="fill:#d3d7cf;fill-opacity:1;stroke:#2e3436;stroke-width:2;stroke-linecap:round;stroke-linejoin:round;stroke-miterlimit:4;stroke-dasharray:none;stroke-dashoffset:0;stroke-opacity:1" /><rect
           transform="rotate(-90)"
           y="5"
           x="-36.999996"
           height="54.000004"
           width="41.999996"
           id="rect2987-1"
           style="fill:url(#linearGradient3781);fill-opacity:1;stroke:#ffffff;stroke-width:2;stroke-linecap:round;stroke-linejoin:miter;stroke-miterlimit:4;stroke-dasharray:none;stroke-dashoffset:0;stroke-opacity:1" /><rect
           y="-3"
           x="7"
           height="38"
           width="50"
           id="rect3894"
           style="color:#000000;display:inline;overflow:visible;visibility:visible;fill:none;stroke:#555753;stroke-width:2;stroke-linecap:round;stroke-linejoin:round;stroke-miterlimit:4;stroke-dasharray:none;stroke-dashoffset:0;stroke-opacity:1;marker:none;enable-background:accumulate" /><rect
           y="23"
           x="33"
           height="12.000004"
           width="23.999994"
           id="rect4664"
           style="color:#000000;display:inline;overflow:visible;visibility:visible;fill:none;stroke:#555753;stroke-width:2;stroke-linecap:round;stroke-linejoin:round;stroke-miterlimit:4;stroke-dasharray:none;stroke-dashoffset:0;stroke-opacity:1;marker:none;enable-background:accumulate" /><path
           id="path4666"
           d="m 37,27 h 15.398794 v 0"
           style="fill:none;stroke:#555753;stroke-width:2;stroke-linecap:round;stroke-linejoin:round;stroke-miterlimit:4;stroke-dasharray:none;stroke-opacity:1" /><path
           id="path4666-7"
           d="m 37,31 h 15.642526 v 0"
           style="fill:none;stroke:#555753;stroke-width:2;stroke-linecap:round;stroke-linejoin:round;stroke-miterlimit:4;stroke-dasharray:none;stroke-opacity:1" /><path
           id="path3896"
           d="M 13,7 V 25"
           style="fill:none;stroke:#888a85;stroke-width:2;stroke-linecap:butt;stroke-linejoin:miter;stroke-opacity:1" /><path
           id="path3898"
           d="M 25,7 V 25"
           style="fill:none;stroke:#888a85;stroke-width:2;stroke-linecap:butt;stroke-linejoin:miter;stroke-opacity:1" /><path
           id="path3900"
           d="M 19,13 H 37"
           style="fill:none;stroke:#888a85;stroke-width:2;stroke-linecap:butt;stroke-linejoin:miter;stroke-opacity:1" /><path
           id="path3902"
           d="M 19,1 H 37"
           style="fill:none;stroke:#888a85;stroke-width:2;stroke-linecap:butt;stroke-linejoin:miter;stroke-opacity:1" /><path
           transform="translate(0,-18)"
           d="m 25,25 c 0,3.313708 -2.686292,6 -6,6 -3.313708,0 -6,-2.686292 -6,-6 0,-3.313708 2.686292,-6 6,-6 3.313708,0 6,2.686292 6,6 z"
           id="path3101"
           style="fill:none;stroke:#2e3436;stroke-width:2;stroke-linecap:round;stroke-linejoin:miter;stroke-miterlimit:4;stroke-dasharray:none;stroke-dashoffset:0.6;stroke-opacity:1" /><path
           transform="translate(18,-18)"
           d="m 25,25 c 0,3.313708 -2.686292,6 -6,6 -3.313708,0 -6,-2.686292 -6,-6 0,-3.313708 2.686292,-6 6,-6 3.313708,0 6,2.686292 6,6 z"
           id="path3101-3"
           style="fill:none;stroke:#2e3436;stroke-width:2;stroke-linecap:round;stroke-linejoin:miter;stroke-miterlimit:4;stroke-dasharray:none;stroke-dashoffset:0.6;stroke-opacity:1" /><path
           d="m 25,25 c 0,3.313708 -2.686292,6 -6,6 -3.313708,0 -6,-2.686292 -6,-6 0,-3.313708 2.686292,-6 6,-6 3.313708,0 6,2.686292 6,6 z"
           id="path3101-6"
           style="fill:none;stroke:#2e3436;stroke-width:2;stroke-linecap:round;stroke-linejoin:miter;stroke-miterlimit:4;stroke-dasharray:none;stroke-dashoffset:0.6;stroke-opacity:1" /></g><path
         style="fill:#ff0000;stroke-width:1.41421"
         d="m 359.07137,521.20669 c -31.9955,-7.14207 -53.40019,-37.57238 -48.543,-69.0119 4.15081,-26.86729 24.74283,-47.55335 51.98797,-52.22537 32.17188,-5.51687 64.15911,18.12312 69.90412,51.66225 7.07549,41.30643 -32.37009,78.7224 -73.34909,69.57502 z m 32.48453,-19.71736 c 8.51342,-4.16523 16.02849,-11.66983 20.97575,-20.94655 2.72356,-5.10701 3.23886,-8.21325 3.23643,-19.50916 -0.003,-11.82568 -0.4533,-14.28205 -3.76299,-20.50609 -4.54938,-8.55534 -12.39911,-16.26114 -20.97504,-20.59045 -9.41211,-4.75143 -25.07997,-5.37751 -35.56336,-1.4211 -10.56807,3.98838 -19.90986,12.42686 -24.81486,22.41539 -3.4317,6.98829 -3.95878,9.70744 -3.89665,20.10225 0.0582,9.73983 0.72269,13.36258 3.50179,19.09189 5.87151,12.1045 17.34609,21.52474 30.36749,24.93064 8.15358,2.13266 22.71388,0.45366 30.93144,-3.56682 z"
         id="path2"
         transform="matrix(0.11185667,0,0,0.11185667,-22.553068,-28.553074)" /><path
         style="fill:#ff0000;stroke-width:1.41421"
         d="m 350.3862,679.71741 c -27.53693,-10.47466 -43.83748,-37.94145 -39.80598,-67.07395 1.64952,-11.91973 7.0028,-22.74133 16.12276,-32.59197 34.80416,-37.59265 96.8852,-18.70226 105.60254,32.13338 4.52196,26.37002 -10.22488,53.85058 -35.19207,65.57998 -8.49878,3.99266 -11.26583,4.56491 -23.76107,4.914 -12.07173,0.33725 -15.43397,-0.0963 -22.96618,-2.96144 z m 41.64515,-17.92426 c 16.56754,-8.11939 25.11102,-23.07509 24.20261,-42.36761 -0.59266,-12.5867 -4.25721,-21.14695 -12.64237,-29.53211 -8.6407,-8.6407 -16.88367,-12.06849 -30.4584,-12.66593 -10.15715,-0.44702 -12.56069,-0.0463 -20.14897,3.35909 -9.93504,4.45859 -18.73679,13.20662 -23.17557,23.03417 -4.56406,10.10489 -4.30787,26.75052 0.56974,37.01798 11.34949,23.89091 37.65308,32.91622 61.65296,21.15441 z"
         id="path3"
         transform="matrix(0.11185667,0,0,0.11185667,-22.553068,-28.553074)" /><path
         style="fill:#ff0000;stroke-width:1.41421"
         d="m 521.91978,521.75585 c -11.29898,-1.89038 -26.4383,-10.20715 -34.3616,-18.87651 -22.7427,-24.88414 -22.49464,-59.3569 0.60668,-84.30909 34.41402,-37.17125 96.31868,-17.73802 105.15621,33.01085 5.59781,32.14501 -18.51153,64.84059 -51.837,70.29811 -9.29525,1.52223 -9.74548,1.51939 -19.56429,-0.12336 z M 552.72175,501.516 c 8.996,-4.40134 16.95826,-12.61984 21.24093,-21.92449 2.31494,-5.02952 3.01201,-9.30927 3.02264,-18.55789 0.0118,-10.29888 -0.54932,-13.16753 -3.91739,-20.02603 -4.31858,-8.79403 -11.74994,-16.28425 -21.10736,-21.27455 -5.10701,-2.72357 -8.21326,-3.23887 -19.50916,-3.23644 -11.85703,0.003 -14.28605,0.45102 -20.68054,3.81824 -29.37889,15.47038 -33.01021,56.95931 -6.73919,76.99719 12.82344,9.78091 32.70841,11.53381 47.69007,4.20397 z"
         id="path4"
         transform="matrix(0.11185667,0,0,0.11185667,-22.553068,-28.553074)" /><path
         style="fill:#ffcc00;stroke-width:0.707107"
         d="m 432.238,605.72205 c -1.6019,-6.61929 -7.35197,-18.07379 -11.82529,-23.55672 l -3.57326,-4.37974 v -27.26328 -27.26329 l -17.50089,-0.082 c -9.6255,-0.0451 -16.8645,-0.22071 -16.08668,-0.39022 24.82222,-5.4094 42.8706,-22.49081 49.18063,-46.5457 l 1.29963,-4.9544 0.0389,17.14734 0.0389,17.14734 h 26.88076 26.88077 l 5.31284,4.22192 c 6.35489,5.04999 16.36509,10.13245 23.65712,12.01138 l 5.30331,1.3665 -44.01205,0.0389 -44.01204,0.0389 -0.18213,43.74893 c -0.17932,43.07455 -0.20091,43.67132 -1.40059,38.7141 z"
         id="path13"
         transform="matrix(0.11185667,0,0,0.11185667,-22.553068,-28.553074)" /><path
         style="fill:#ffcc00;stroke-width:0.707107"
         d="m 309.44708,541.29024 -0.0126,-68.58936 1.73162,5.85675 c 2.66795,9.02362 8.90938,20.20503 13.66559,24.48166 1.48969,1.33949 1.49808,1.55361 1.49808,38.25095 0,36.69735 -0.008,36.91146 -1.49808,38.25095 -4.80126,4.31714 -11.35977,16.26105 -13.98302,25.46492 l -1.38902,4.87349 z"
         id="path14"
         transform="matrix(0.11185667,0,0,0.11185667,-22.553068,-28.553074)" /><path
         style="fill:#ffcc00;stroke-width:0.707107"
         d="m 413.2504,413.93225 c -4.41992,-4.76099 -16.70036,-11.45184 -25.25326,-13.75893 -4.66802,-1.25917 -3.62881,-1.28009 63.84409,-1.28491 l 68.58936,-0.005 -5.96584,1.76311 c -7.72117,2.28189 -15.59855,6.41251 -21.47858,11.26264 l -4.69123,3.86954 h -36.66515 -36.66514 z"
         id="path15"
         transform="matrix(0.11185667,0,0,0.11185667,-22.553068,-28.553074)" /></g></g><g
     inkscape:groupmode="layer"
     id="layer5"
     inkscape:label="Layer 3"
     transform="translate(-0.0917383,-62.772769)"
     style="fill:#008000"><path
       style="fill:#008000;stroke-width:2.82843"
       d=""
       id="path9"
       transform="matrix(0.26458333,0,0,0.26458333,0.0917383,62.772769)" /><path
       style="fill:#008000;stroke-width:0.353553"
       d=""
       id="path11"
       transform="matrix(0.26458333,0,0,0.26458333,0.0917383,62.772769)" /><path
       style="fill:#008000;stroke-width:0.741281"
       d="m 33.68149,130.87213 c -14.600611,29.20464 -26.1079036,52.92356 -25.5717503,52.70871 0.5361434,-0.21485 11.9680653,-5.10659 25.4042683,-10.87053 13.436203,-5.76394 25.111373,-10.6477 25.944819,-10.85278 0.940465,-0.23141 11.358165,3.83093 27.460157,10.70798 14.269646,6.09447 26.047056,10.97995 26.171996,10.85663 0.23037,-0.22735 -52.332486,-105.649371 -52.676206,-105.649371 -0.10269,0 -12.132674,23.894711 -26.733284,53.099361 z"
       id="path20" /></g></svg>
