<?xml version="1.0" encoding="UTF-8" standalone="no"?>
<!-- Created with Inkscape (http://www.inkscape.org/) -->

<svg
   width="64"
   height="64"
   viewBox="0 0 16.933333 16.933333"
   version="1.1"
   id="svg1"
   xml:space="preserve"
   inkscape:version="1.3 (0e150ed6c4, 2023-07-21)"
   sodipodi:docname="TitleBlockWB.svg"
   xmlns:inkscape="http://www.inkscape.org/namespaces/inkscape"
   xmlns:sodipodi="http://sodipodi.sourceforge.net/DTD/sodipodi-0.dtd"
   xmlns:xlink="http://www.w3.org/1999/xlink"
   xmlns="http://www.w3.org/2000/svg"
   xmlns:svg="http://www.w3.org/2000/svg"><sodipodi:namedview
     id="namedview1"
     pagecolor="#505050"
     bordercolor="#eeeeee"
     borderopacity="1"
     inkscape:showpageshadow="0"
     inkscape:pageopacity="0"
     inkscape:pagecheckerboard="0"
     inkscape:deskcolor="#505050"
     inkscape:document-units="px"
     inkscape:zoom="11.313708"
     inkscape:cx="43.398679"
     inkscape:cy="22.318058"
     inkscape:window-width="3440"
     inkscape:window-height="1369"
     inkscape:window-x="-8"
     inkscape:window-y="-8"
     inkscape:window-maximized="1"
     inkscape:current-layer="layer3"
     showgrid="false" /><defs
     id="defs1"><linearGradient
       id="linearGradient5048"><stop
         id="stop5050"
         offset="0"
         style="stop-color:black;stop-opacity:0;" /><stop
         style="stop-color:black;stop-opacity:1;"
         offset="0.5"
         id="stop5056" /><stop
         id="stop5052"
         offset="1"
         style="stop-color:black;stop-opacity:0;" /></linearGradient><linearGradient
       id="linearGradient4542"><stop
         id="stop4544"
         offset="0"
         style="stop-color:#000000;stop-opacity:1;" /><stop
         id="stop4546"
         offset="1"
         style="stop-color:#000000;stop-opacity:0;" /></linearGradient><radialGradient
       gradientUnits="userSpaceOnUse"
       gradientTransform="matrix(1,0,0,0.284916,0,30.08928)"
       r="15.821514"
       fy="42.07798"
       fx="24.306795"
       cy="42.07798"
       cx="24.306795"
       id="radialGradient4548"
       xlink:href="#linearGradient4542" /><linearGradient
       id="linearGradient15662"><stop
         id="stop15664"
         offset="0.0000000"
         style="stop-color:#ffffff;stop-opacity:1.0000000;" /><stop
         id="stop15666"
         offset="1.0000000"
         style="stop-color:#f8f8f8;stop-opacity:1.0000000;" /></linearGradient><radialGradient
       id="aigrd3"
       cx="20.892099"
       cy="64.567902"
       r="5.257"
       fx="20.892099"
       fy="64.567902"
       gradientUnits="userSpaceOnUse"><stop
         offset="0"
         style="stop-color:#F0F0F0"
         id="stop15573" /><stop
         offset="1.0000000"
         style="stop-color:#9a9a9a;stop-opacity:1.0000000;"
         id="stop15575" /></radialGradient><radialGradient
       id="aigrd2"
       cx="20.892099"
       cy="114.5684"
       r="5.256"
       fx="20.892099"
       fy="114.5684"
       gradientUnits="userSpaceOnUse"><stop
         offset="0"
         style="stop-color:#F0F0F0"
         id="stop15566" /><stop
         offset="1.0000000"
         style="stop-color:#9a9a9a;stop-opacity:1.0000000;"
         id="stop15568" /></radialGradient><linearGradient
       id="linearGradient269"><stop
         id="stop270"
         offset="0.0000000"
         style="stop-color:#a3a3a3;stop-opacity:1.0000000;" /><stop
         id="stop271"
         offset="1.0000000"
         style="stop-color:#4c4c4c;stop-opacity:1.0000000;" /></linearGradient><linearGradient
       id="linearGradient259"><stop
         id="stop260"
         offset="0.0000000"
         style="stop-color:#fafafa;stop-opacity:1.0000000;" /><stop
         id="stop261"
         offset="1.0000000"
         style="stop-color:#bbbbbb;stop-opacity:1.0000000;" /></linearGradient><linearGradient
       id="linearGradient12512"><stop
         id="stop12513"
         offset="0.0000000"
         style="stop-color:#ffffff;stop-opacity:1.0000000;" /><stop
         id="stop12517"
         offset="0.50000000"
         style="stop-color:#fff520;stop-opacity:0.89108908;" /><stop
         id="stop12514"
         offset="1.0000000"
         style="stop-color:#fff300;stop-opacity:0.0000000;" /></linearGradient><radialGradient
       r="14.375"
       fy="125"
       fx="55"
       cy="125"
       cx="55"
       gradientUnits="userSpaceOnUse"
       id="radialGradient278"
       xlink:href="#linearGradient12512" /><linearGradient
       y2="609.50507"
       x2="302.85715"
       y1="366.64789"
       x1="302.85715"
       gradientTransform="matrix(2.774389,0,0,1.969706,-1892.179,-872.8854)"
       gradientUnits="userSpaceOnUse"
       id="linearGradient5027-1"
       xlink:href="#linearGradient5048" /><radialGradient
       r="117.14286"
       fy="486.64789"
       fx="605.71429"
       cy="486.64789"
       cx="605.71429"
       gradientTransform="matrix(2.774389,0,0,1.969706,-1891.633,-872.8854)"
       gradientUnits="userSpaceOnUse"
       id="radialGradient5029-4"
       xlink:href="#linearGradient4542" /><radialGradient
       xlink:href="#linearGradient4542"
       id="radialGradient3277"
       gradientUnits="userSpaceOnUse"
       gradientTransform="matrix(-2.774389,0,0,1.969706,112.7623,-872.8854)"
       cx="605.71429"
       cy="486.64789"
       fx="605.71429"
       fy="486.64789"
       r="117.14286" /><radialGradient
       xlink:href="#linearGradient259"
       id="radialGradient15658-4"
       gradientUnits="userSpaceOnUse"
       gradientTransform="matrix(1.3213634,0,0,1.4243677,-18.082716,-65.975171)"
       cx="33.966679"
       cy="35.736916"
       fx="33.966679"
       fy="35.736916"
       r="86.70845" /><radialGradient
       xlink:href="#linearGradient269"
       id="radialGradient15656-7"
       gradientUnits="userSpaceOnUse"
       gradientTransform="matrix(1.3320666,0,0,1.4129236,-13.469186,-65.090761)"
       cx="3.3431637"
       cy="37.388847"
       fx="3.3431637"
       fy="37.388847"
       r="37.751713" /><radialGradient
       xlink:href="#linearGradient15662"
       id="radialGradient15668-2"
       gradientUnits="userSpaceOnUse"
       gradientTransform="matrix(1.2992848,0,0,1.378488,-12.78616,-64.242471)"
       cx="8.1435566"
       cy="7.2678967"
       fx="8.1435566"
       fy="7.2678967"
       r="38.158695" /><radialGradient
       r="5.256"
       fy="114.5684"
       fx="20.892099"
       cy="114.5684"
       cx="20.892099"
       gradientTransform="matrix(0.229703,0,0,0.229703,4.613529,3.979808)"
       gradientUnits="userSpaceOnUse"
       id="radialGradient2283-4"
       xlink:href="#aigrd2-2" /><radialGradient
       id="aigrd2-2"
       cx="20.892099"
       cy="114.5684"
       r="5.256"
       fx="20.892099"
       fy="114.5684"
       gradientUnits="userSpaceOnUse"><stop
         offset="0"
         style="stop-color:#F0F0F0"
         id="stop15566-3" /><stop
         offset="1.0000000"
         style="stop-color:#9a9a9a;stop-opacity:1.0000000;"
         id="stop15568-2" /></radialGradient><radialGradient
       r="5.257"
       fy="64.567902"
       fx="20.892099"
       cy="64.567902"
       cx="20.892099"
       gradientTransform="matrix(0.229703,0,0,0.229703,4.613529,3.979808)"
       gradientUnits="userSpaceOnUse"
       id="radialGradient2285-2"
       xlink:href="#aigrd3-1" /><radialGradient
       id="aigrd3-1"
       cx="20.892099"
       cy="64.567902"
       r="5.257"
       fx="20.892099"
       fy="64.567902"
       gradientUnits="userSpaceOnUse"><stop
         offset="0"
         style="stop-color:#F0F0F0"
         id="stop15573-6" /><stop
         offset="1.0000000"
         style="stop-color:#9a9a9a;stop-opacity:1.0000000;"
         id="stop15575-8" /></radialGradient><radialGradient
       xlink:href="#linearGradient4542"
       id="radialGradient3187"
       gradientUnits="userSpaceOnUse"
       gradientTransform="matrix(-2.774389,0,0,1.969706,112.7623,-872.8854)"
       cx="605.71429"
       cy="486.64789"
       fx="605.71429"
       fy="486.64789"
       r="117.14286" /><radialGradient
       r="5.256"
       fy="114.5684"
       fx="20.892099"
       cy="114.5684"
       cx="20.892099"
       gradientTransform="matrix(0.229703,0,0,0.229703,4.613529,3.979808)"
       gradientUnits="userSpaceOnUse"
       id="radialGradient2283"
       xlink:href="#aigrd2-7" /><radialGradient
       id="aigrd2-7"
       cx="20.892099"
       cy="114.5684"
       r="5.256"
       fx="20.892099"
       fy="114.5684"
       gradientUnits="userSpaceOnUse"><stop
         offset="0"
         style="stop-color:#F0F0F0"
         id="stop15566-4" /><stop
         offset="1.0000000"
         style="stop-color:#9a9a9a;stop-opacity:1.0000000;"
         id="stop15568-27" /></radialGradient><radialGradient
       r="5.257"
       fy="64.567902"
       fx="20.892099"
       cy="64.567902"
       cx="20.892099"
       gradientTransform="matrix(0.229703,0,0,0.229703,4.613529,3.979808)"
       gradientUnits="userSpaceOnUse"
       id="radialGradient2285"
       xlink:href="#aigrd3-7" /><radialGradient
       id="aigrd3-7"
       cx="20.892099"
       cy="64.567902"
       r="5.257"
       fx="20.892099"
       fy="64.567902"
       gradientUnits="userSpaceOnUse"><stop
         offset="0"
         style="stop-color:#F0F0F0"
         id="stop15573-9" /><stop
         offset="1.0000000"
         style="stop-color:#9a9a9a;stop-opacity:1.0000000;"
         id="stop15575-3" /></radialGradient><radialGradient
       xlink:href="#linearGradient15662"
       id="radialGradient15668"
       gradientUnits="userSpaceOnUse"
       gradientTransform="matrix(1.3004371,0,0,1.4315028,-12.790082,-64.443403)"
       cx="8.1435566"
       cy="7.2678967"
       fx="8.1435566"
       fy="7.2678967"
       r="38.158695" /><radialGradient
       xlink:href="#linearGradient259"
       id="radialGradient15658"
       gradientUnits="userSpaceOnUse"
       gradientTransform="matrix(1.3225497,0,0,1.4752117,-18.091663,-66.151728)"
       cx="33.966679"
       cy="35.736916"
       fx="33.966679"
       fy="35.736916"
       r="86.70845" /><radialGradient
       xlink:href="#linearGradient269"
       id="radialGradient15656"
       gradientUnits="userSpaceOnUse"
       gradientTransform="matrix(1.3332625,0,0,1.4633592,-13.473992,-65.235757)"
       cx="3.3431637"
       cy="37.388847"
       fx="3.3431637"
       fy="37.388847"
       r="37.751713" /><radialGradient
       r="117.14286"
       fy="486.64789"
       fx="605.71429"
       cy="486.64789"
       cx="605.71429"
       gradientTransform="matrix(2.774389,0,0,1.969706,-1891.633,-872.8854)"
       gradientUnits="userSpaceOnUse"
       id="radialGradient5029"
       xlink:href="#linearGradient4542" /><radialGradient
       xlink:href="#linearGradient4542"
       id="radialGradient3277-0"
       gradientUnits="userSpaceOnUse"
       gradientTransform="matrix(-2.774389,0,0,1.969706,112.7623,-872.8854)"
       cx="605.71429"
       cy="486.64789"
       fx="605.71429"
       fy="486.64789"
       r="117.14286" /><radialGradient
       xlink:href="#linearGradient4542"
       id="radialGradient3255"
       gradientUnits="userSpaceOnUse"
       gradientTransform="matrix(-2.774389,0,0,1.969706,112.7623,-872.8854)"
       cx="605.71429"
       cy="486.64789"
       fx="605.71429"
       fy="486.64789"
       r="117.14286" /><linearGradient
       gradientTransform="translate(-48)"
       gradientUnits="userSpaceOnUse"
       y2="25.999996"
       x2="53"
       y1="39.999996"
       x1="10"
       id="linearGradient3781"
       xlink:href="#linearGradient3775" /><linearGradient
       id="linearGradient3775"><stop
         id="stop3777"
         offset="0"
         style="stop-color:#d3d7cf;stop-opacity:1;" /><stop
         id="stop3779"
         offset="1"
         style="stop-color:#ffffff;stop-opacity:1" /></linearGradient><radialGradient
       gradientUnits="userSpaceOnUse"
       r="19.467436"
       fy="28.869568"
       fx="45.883327"
       cy="28.869568"
       cx="45.883327"
       id="radialGradient3692"
       xlink:href="#linearGradient3377" /><radialGradient
       gradientTransform="matrix(0.97435,0.2250379,-0.4623105,2.0016728,48.487554,-127.99883)"
       r="19.467436"
       fy="97.369568"
       fx="135.38333"
       cy="97.369568"
       cx="135.38333"
       gradientUnits="userSpaceOnUse"
       id="radialGradient3703"
       xlink:href="#linearGradient3377" /><linearGradient
       id="linearGradient3377"><stop
         style="stop-color:#faff2b;stop-opacity:1;"
         offset="0"
         id="stop3379" /><stop
         style="stop-color:#ffaa00;stop-opacity:1;"
         offset="1"
         id="stop3381" /></linearGradient><radialGradient
       gradientTransform="matrix(1.3852588,-0.05136783,0.03705629,0.9993132,-60.392403,7.7040438)"
       r="19.467436"
       fy="81.869568"
       fx="148.88333"
       cy="81.869568"
       cx="148.88333"
       gradientUnits="userSpaceOnUse"
       id="radialGradient3705"
       xlink:href="#linearGradient3377" /><linearGradient
       gradientTransform="matrix(1,0,0,0.77777777,0,5.1111114)"
       gradientUnits="userSpaceOnUse"
       y2="5"
       x2="21"
       y1="58"
       x1="38"
       id="linearGradient3789"
       xlink:href="#linearGradient3775" /><symbol
       id="DownArrow"><title
         id="title284">Down Arrow</title><path
         d="M 36,63 14,41 V 26 L 30,42 V 10 H 42 V 42 L 58,26 v 15 z"
         style="stroke:none"
         id="path284" /></symbol></defs><g
     inkscape:groupmode="layer"
     id="layer3"
     inkscape:label="Layer 2"
     transform="matrix(0.08466665,0,0,0.08466663,-0.00776499,-5.3147526)"><g
       id="g2"><g
         id="layer1-3"
         transform="matrix(3.3333335,0,0,3.3333335,-6.5749263,42.772775)"><rect
           y="8"
           x="4"
           height="44"
           width="56"
           id="rect3002-9"
           style="color:#000000;display:inline;overflow:visible;visibility:visible;fill:#ffffff;stroke:#2e3436;stroke-width:4;stroke-linecap:butt;stroke-linejoin:round;stroke-miterlimit:4;stroke-dasharray:none;stroke-dashoffset:0;stroke-opacity:1;marker:none;enable-background:accumulate" /><rect
           y="9"
           x="5"
           height="42"
           width="54"
           id="rect3002-9-3"
           style="color:#000000;display:inline;overflow:visible;visibility:visible;fill:url(#linearGradient3789);fill-opacity:1;stroke:#ffffff;stroke-width:2;stroke-linecap:butt;stroke-linejoin:round;stroke-miterlimit:4;stroke-dasharray:none;stroke-dashoffset:0;stroke-opacity:1;marker:none;enable-background:accumulate" /><path
           id="path3790"
           d="M 3,18 H 61"
           style="fill:none;stroke:#2e3436;stroke-width:4;stroke-linecap:butt;stroke-linejoin:miter;stroke-miterlimit:4;stroke-dasharray:none;stroke-opacity:1" /><path
           id="path3792"
           d="M 22,6 V 54"
           style="fill:none;stroke:#2e3436;stroke-width:4;stroke-linecap:butt;stroke-linejoin:miter;stroke-miterlimit:4;stroke-dasharray:none;stroke-opacity:1" /><path
           id="path3794"
           d="M 3,30 H 61"
           style="fill:none;stroke:#2e3436;stroke-width:4;stroke-linecap:butt;stroke-linejoin:miter;stroke-miterlimit:4;stroke-dasharray:none;stroke-opacity:1" /><path
           id="path3796"
           d="M 3,42 H 61"
           style="fill:none;stroke:#2e3436;stroke-width:4;stroke-linecap:butt;stroke-linejoin:miter;stroke-miterlimit:4;stroke-dasharray:none;stroke-opacity:1" /></g><g
         id="g1"
         transform="matrix(2.3653783,0,0,2.3653783,53.438275,130.31159)"><g
           transform="translate(0,16)"
           id="layer6" /><g
           transform="translate(0,16)"
           style="display:inline"
           id="layer1-9" /><g
           transform="translate(0,16)"
           style="display:inline"
           id="layer4" /><g
           transform="translate(0,16)"
           id="layer2"><rect
             transform="rotate(-90)"
             y="3"
             x="-38.999996"
             height="58.000004"
             width="45.999996"
             id="rect2987"
             style="fill:#d3d7cf;fill-opacity:1;stroke:#2e3436;stroke-width:2;stroke-linecap:round;stroke-linejoin:round;stroke-miterlimit:4;stroke-dasharray:none;stroke-dashoffset:0;stroke-opacity:1" /><rect
             transform="rotate(-90)"
             y="5"
             x="-36.999996"
             height="54.000004"
             width="41.999996"
             id="rect2987-1"
             style="fill:url(#linearGradient3781);fill-opacity:1;stroke:#ffffff;stroke-width:2;stroke-linecap:round;stroke-linejoin:miter;stroke-miterlimit:4;stroke-dasharray:none;stroke-dashoffset:0;stroke-opacity:1" /><rect
             y="-3"
             x="7"
             height="38"
             width="50"
             id="rect3894"
             style="color:#000000;display:inline;overflow:visible;visibility:visible;fill:none;stroke:#555753;stroke-width:2;stroke-linecap:round;stroke-linejoin:round;stroke-miterlimit:4;stroke-dasharray:none;stroke-dashoffset:0;stroke-opacity:1;marker:none;enable-background:accumulate" /><rect
             y="23"
             x="33"
             height="12.000004"
             width="23.999994"
             id="rect4664"
             style="color:#000000;display:inline;overflow:visible;visibility:visible;fill:none;stroke:#555753;stroke-width:2;stroke-linecap:round;stroke-linejoin:round;stroke-miterlimit:4;stroke-dasharray:none;stroke-dashoffset:0;stroke-opacity:1;marker:none;enable-background:accumulate" /><path
             id="path4666"
             d="m 37,27 h 15.398794 v 0"
             style="fill:none;stroke:#555753;stroke-width:2;stroke-linecap:round;stroke-linejoin:round;stroke-miterlimit:4;stroke-dasharray:none;stroke-opacity:1" /><path
             id="path4666-7"
             d="m 37,31 h 15.642526 v 0"
             style="fill:none;stroke:#555753;stroke-width:2;stroke-linecap:round;stroke-linejoin:round;stroke-miterlimit:4;stroke-dasharray:none;stroke-opacity:1" /><path
             id="path3896"
             d="M 13,7 V 25"
             style="fill:none;stroke:#888a85;stroke-width:2;stroke-linecap:butt;stroke-linejoin:miter;stroke-opacity:1" /><path
             id="path3898"
             d="M 25,7 V 25"
             style="fill:none;stroke:#888a85;stroke-width:2;stroke-linecap:butt;stroke-linejoin:miter;stroke-opacity:1" /><path
             id="path3900"
             d="M 19,13 H 37"
             style="fill:none;stroke:#888a85;stroke-width:2;stroke-linecap:butt;stroke-linejoin:miter;stroke-opacity:1" /><path
             id="path3902"
             d="M 19,1 H 37"
             style="fill:none;stroke:#888a85;stroke-width:2;stroke-linecap:butt;stroke-linejoin:miter;stroke-opacity:1" /><path
             transform="translate(0,-18)"
             d="m 25,25 c 0,3.313708 -2.686292,6 -6,6 -3.313708,0 -6,-2.686292 -6,-6 0,-3.313708 2.686292,-6 6,-6 3.313708,0 6,2.686292 6,6 z"
             id="path3101"
             style="fill:none;stroke:#2e3436;stroke-width:2;stroke-linecap:round;stroke-linejoin:miter;stroke-miterlimit:4;stroke-dasharray:none;stroke-dashoffset:0.6;stroke-opacity:1" /><path
             transform="translate(18,-18)"
             d="m 25,25 c 0,3.313708 -2.686292,6 -6,6 -3.313708,0 -6,-2.686292 -6,-6 0,-3.313708 2.686292,-6 6,-6 3.313708,0 6,2.686292 6,6 z"
             id="path3101-3"
             style="fill:none;stroke:#2e3436;stroke-width:2;stroke-linecap:round;stroke-linejoin:miter;stroke-miterlimit:4;stroke-dasharray:none;stroke-dashoffset:0.6;stroke-opacity:1" /><path
             d="m 25,25 c 0,3.313708 -2.686292,6 -6,6 -3.313708,0 -6,-2.686292 -6,-6 0,-3.313708 2.686292,-6 6,-6 3.313708,0 6,2.686292 6,6 z"
             id="path3101-6"
             style="fill:none;stroke:#2e3436;stroke-width:2;stroke-linecap:round;stroke-linejoin:miter;stroke-miterlimit:4;stroke-dasharray:none;stroke-dashoffset:0.6;stroke-opacity:1" /></g></g><path
         style="fill:#ff0000"
         d="m 356.5,681.92392 c -22.23426,-5.83936 -40.8572,-25.09389 -45.50957,-47.05302 -6.41425,-30.27518 10.84952,-61.20644 39.85042,-71.39943 23.12938,-8.12932 47.03741,-2.54109 64.66389,15.11445 14.60287,14.62695 20.83092,35.86591 16.50483,56.28498 -4.69963,22.18219 -23.43744,41.38647 -45.96967,47.11407 -7.42367,1.88706 -22.23873,1.85645 -29.5399,-0.0611 z m 34.26487,-19.26741 c 28.91197,-13.98771 34.61299,-52.49977 10.98279,-74.19192 -17.34395,-15.92147 -43.55347,-15.6858 -61.08932,0.5493 -6.42083,5.94456 -10.14285,12.07999 -12.6976,20.93094 -2.24961,7.79376 -1.56254,20.76056 1.51852,28.65828 4.48278,11.49078 14.82537,21.39635 27.05567,25.91247 4.50929,1.66508 7.38884,1.96517 16.46507,1.7159 10.05825,-0.27624 11.57917,-0.5823 17.76487,-3.57497 z"
         id="path1"
         transform="matrix(0.26458333,0,0,0.26458333,0.0917383,62.772769)" /><path
         style="fill:#ff0000"
         d="m 356.71698,521.05071 c -15.91702,-3.85405 -33.21175,-17.65212 -40.48174,-32.29713 -20.31391,-40.92128 8.87773,-89.10161 54.26476,-89.56314 5.225,-0.0531 11.975,0.50481 15,1.23988 32.80065,7.97044 53.41884,40.59446 46.4956,73.56968 -4.55045,21.67369 -23.4534,41.31988 -45.13994,46.91482 -7.34201,1.89416 -22.5931,1.96293 -30.13868,0.13589 z m 28.3298,-17.10222 c 11.62173,-3.19215 23.8726,-14.53009 28.46673,-26.34538 3.03346,-7.80154 3.70399,-19.76983 1.57312,-28.07845 -6.61199,-25.78117 -34.32668,-40.13979 -59.4731,-30.81225 C 338.05002,425.22723 326.5,441.794 326.5,460.4714 c 0,31.05085 28.02323,51.86102 58.54678,43.47709 z"
         id="path2"
         transform="matrix(0.26458333,0,0,0.26458333,0.0917383,62.772769)" /><path
         style="fill:#ff0000"
         d="m 516,520.60799 c -45.59348,-13.2945 -60.65836,-69.8165 -27.46843,-103.05889 17.35823,-17.38566 41.36459,-23.03076 64.28882,-15.11753 17.52976,6.05111 31.76652,20.57877 38.44822,39.23383 2.23955,6.25273 2.63474,9.03088 2.67922,18.8346 0.043,9.47469 -0.35869,12.7328 -2.28076,18.5 -3.48805,10.46597 -7.69933,17.16496 -16.09854,25.60835 -5.9772,6.00865 -9.3557,8.46022 -16.06853,11.65991 -4.675,2.22836 -10.88465,4.5421 -13.79922,5.14165 -7.93049,1.63136 -22.72584,1.23189 -29.70078,-0.80192 z m 30.36057,-16.85508 c 10.87834,-3.23931 20.8497,-11.71772 26.17136,-22.25291 11.32841,-22.42662 2.58101,-49.66864 -19.44382,-60.5539 -17.72295,-8.75916 -36.91967,-6.22126 -51.12163,6.75853 C 492.39623,436.4513 487.5,447.72023 487.5,461 c 0,30.73861 28.84584,51.69056 58.86057,42.75291 z"
         id="path3"
         transform="matrix(0.26458333,0,0,0.26458333,0.0917383,62.772769)" /><path
         style="fill:#008000"
         d="m 432.14609,604.5 c -1.46351,-5.99867 -6.61225,-15.88063 -11.22461,-21.54336 L 416.5,577.52826 V 550.01413 522.5 l -15.25,-0.0538 -15.25,-0.0538 5.7023,-1.82325 c 18.52497,-5.92316 33.54631,-21.38004 39.91196,-41.0692 l 1.77819,-5.5 0.0538,16.25 0.0538,16.25 h 27.5817 27.58171 l 4.16829,3.3578 c 5.94719,4.79079 12.87974,8.60551 19.466,10.7114 l 5.7023,1.82325 -42.23926,0.0538 -42.23927,0.0538 -0.26073,42.75 c -0.16013,26.25489 -0.59022,41.39952 -1.11465,39.25 z"
         id="path4"
         transform="matrix(0.26458333,0,0,0.26458333,0.0917383,62.772769)" /><path
         style="fill:#008000"
         d="m 309.63709,541 c 0.0522,-36.85 0.31107,-66.1 0.57525,-65 1.99136,8.29144 10.27263,23.75286 14.68251,27.41273 1.41989,1.17841 1.60515,5.54548 1.60515,37.83851 v 36.50636 l -3.38482,3.74659 c -4.61296,5.10599 -8.35341,11.70683 -11.19303,19.7525 L 309.54218,608 Z"
         id="path5"
         transform="matrix(0.26458333,0,0,0.26458333,0.0917383,62.772769)" /><path
         style="fill:#008000"
         d="m 411.23583,412.09014 c -4.98325,-4.40396 -14.80707,-9.5821 -22.23583,-11.72052 -5.82745,-1.67746 -4.01564,-1.72713 63,-1.72713 67.32684,0 68.85451,0.0424 63,1.74952 -7.98321,2.32781 -15.9596,6.45362 -21.67941,11.21372 L 488.64119,415.5 451.82059,415.4584 415,415.41675 Z"
         id="path6"
         transform="matrix(0.26458333,0,0,0.26458333,0.0917383,62.772769)" /><path
         style="fill:#ffcc00;stroke-width:0.564786"
         d="M 119.58869,112.9329 C 108.46441,90.681752 99.696954,72.610182 100.10545,72.773872 c 0.40849,0.1637 9.11852,3.89074 19.35563,8.28231 10.23711,4.39158 19.13248,8.11254 19.76748,8.26878 0.71655,0.17632 8.65384,-2.9188 20.92203,-8.15846 10.87211,-4.64341 19.84537,-8.36568 19.94057,-8.27171 0.17552,0.17321 -39.87237,80.494758 -40.13426,80.494758 -0.0782,0 -9.24394,-18.2055 -20.36821,-40.45665 z"
         id="path20" /><path
         style="fill:#ff0000;stroke-width:0.564786"
         d="m 27.588693,113.22943 c -11.124275,22.25115 -19.8917374,40.32271 -19.4832393,40.15902 0.4084907,-0.1637 9.1185253,-3.89074 19.3556333,-8.28232 10.237107,-4.39157 19.132475,-8.11253 19.767481,-8.26877 0.716546,-0.17632 8.65384,2.9188 20.922026,8.15847 10.87211,4.64339 19.845379,8.36566 19.940569,8.27171 0.17552,-0.17322 -39.872373,-80.494771 -40.134254,-80.494771 -0.07824,0 -9.243943,18.205493 -20.368216,40.456661 z"
         id="path20-4" /></g></g></svg>
